@startuml
class es.kiwi.structural.facade.example2.BModuleImpl {
+ void testB()
}
interface es.kiwi.structural.facade.example2.BModuleApi {
~ void testB()
}
class es.kiwi.structural.facade.example2.CModuleImpl {
+ void testC()
}
class es.kiwi.structural.facade.example2.Facade {
+ void test()
}
class es.kiwi.structural.facade.example2.Client {
+ {static} void main(String[])
}
class es.kiwi.structural.facade.example2.AModuleImpl {
+ void testA()
}
interface es.kiwi.structural.facade.example2.CModuleApi {
~ void testC()
}
interface es.kiwi.structural.facade.example2.AModuleApi {
~ void testA()
}


es.kiwi.structural.facade.example2.BModuleApi <|.left. es.kiwi.structural.facade.example2.BModuleImpl
es.kiwi.structural.facade.example2.CModuleApi <|.left. es.kiwi.structural.facade.example2.CModuleImpl
es.kiwi.structural.facade.example2.AModuleApi <|.left. es.kiwi.structural.facade.example2.AModuleImpl
es.kiwi.structural.facade.example2.Facade ..> es.kiwi.structural.facade.example2.AModuleImpl
es.kiwi.structural.facade.example2.Facade ..> es.kiwi.structural.facade.example2.BModuleImpl
es.kiwi.structural.facade.example2.Facade ..> es.kiwi.structural.facade.example2.CModuleImpl
es.kiwi.structural.facade.example2.Facade .up.> es.kiwi.structural.facade.example2.AModuleApi
es.kiwi.structural.facade.example2.Facade .right.> es.kiwi.structural.facade.example2.BModuleApi
es.kiwi.structural.facade.example2.Facade ..> es.kiwi.structural.facade.example2.CModuleApi
es.kiwi.structural.facade.example2.Client .right.> es.kiwi.structural.facade.example2.Facade
@enduml